<svg width="28" height="29" viewBox="0 0 28 29" fill="none" xmlns="http://www.w3.org/2000/svg">
<g id="ri:bank-line">
<path id="Vector" d="M2.33301 24.2335H25.6663V26.5669H2.33301V24.2335ZM4.66634 14.9002H6.99967V23.0669H4.66634V14.9002ZM10.4997 14.9002H12.833V23.0669H10.4997V14.9002ZM15.1663 14.9002H17.4997V23.0669H15.1663V14.9002ZM20.9997 14.9002H23.333V23.0669H20.9997V14.9002ZM2.33301 9.06685L13.9997 3.23352L25.6663 9.06685V13.7335H2.33301V9.06685ZM4.66634 10.5089V11.4002H23.333V10.5089L13.9997 5.84219L4.66634 10.5089ZM13.9997 10.2335C13.6903 10.2335 13.3935 10.1106 13.1747 9.89181C12.9559 9.67302 12.833 9.37627 12.833 9.06685C12.833 8.75743 12.9559 8.46069 13.1747 8.2419C13.3935 8.0231 13.6903 7.90019 13.9997 7.90019C14.3091 7.90019 14.6058 8.0231 14.8246 8.2419C15.0434 8.46069 15.1663 8.75743 15.1663 9.06685C15.1663 9.37627 15.0434 9.67302 14.8246 9.89181C14.6058 10.1106 14.3091 10.2335 13.9997 10.2335Z" fill="#D22E1E"/>
</g>
</svg>
