<svg width="28" height="29" viewBox="0 0 28 29" fill="none" xmlns="http://www.w3.org/2000/svg">
<g id="ri:smartphone-line">
<path id="Vector" d="M8.16634 5.56685V24.2335H19.833V5.56685H8.16634ZM6.99967 3.23352H20.9997C21.3091 3.23352 21.6058 3.35644 21.8246 3.57523C22.0434 3.79402 22.1663 4.09077 22.1663 4.40019V25.4002C22.1663 25.7096 22.0434 26.0064 21.8246 26.2251C21.6058 26.4439 21.3091 26.5669 20.9997 26.5669H6.99967C6.69026 26.5669 6.39351 26.4439 6.17472 26.2251C5.95592 26.0064 5.83301 25.7096 5.83301 25.4002V4.40019C5.83301 4.09077 5.95592 3.79402 6.17472 3.57523C6.39351 3.35644 6.69026 3.23352 6.99967 3.23352ZM13.9997 20.7335C14.3091 20.7335 14.6058 20.8564 14.8246 21.0752C15.0434 21.294 15.1663 21.5908 15.1663 21.9002C15.1663 22.2096 15.0434 22.5064 14.8246 22.7251C14.6058 22.9439 14.3091 23.0669 13.9997 23.0669C13.6903 23.0669 13.3935 22.9439 13.1747 22.7251C12.9559 22.5064 12.833 22.2096 12.833 21.9002C12.833 21.5908 12.9559 21.294 13.1747 21.0752C13.3935 20.8564 13.6903 20.7335 13.9997 20.7335Z" fill="#D22E1E"/>
</g>
</svg>
